<?xml version="1.0" standalone="no"?>
<!DOCTYPE svg PUBLIC "-//W3C//DTD SVG 20010904//EN"
 "http://www.w3.org/TR/2001/REC-SVG-20010904/DTD/svg10.dtd">
<svg version="1.0" xmlns="http://www.w3.org/2000/svg"
 width="260.000000pt" height="260.000000pt" viewBox="0 0 260.000000 260.000000"
 preserveAspectRatio="xMidYMid meet">
<metadata>
Created by potrace 1.14, written by Peter Selinger 2001-2017
</metadata>
<g transform="translate(0.000000,260.000000) scale(0.100000,-0.100000)"
fill="#000000" stroke="none">
<path d="M670 1535 l0 -735 145 0 145 0 2 389 3 389 363 -404 c362 -403 363
-404 402 -404 l40 0 0 545 0 545 150 0 150 0 0 -640 0 -641 73 3 72 3 0 700 0
700 -222 3 -222 2 -3 123 -3 122 -142 3 -143 3 -2 -408 -3 -408 -363 423 -363
422 -39 0 -40 0 0 -735z"/>
</g>
</svg>
